{
	"asset":{
		"version":"2.0",
		"generator":"Created using the official Cinema 4D glTF Exporter 1.000x290161"
	},
	"scenes":[{
		"nodes":[0]
	}],
	"nodes":[{
		"name":"Atelier.obj.2",
		"mesh":0
	}],
	"meshes":[{
		"primitives":[{
			"attributes":{
				"POSITION":1,
				"NORMAL":2,
				"TEXCOORD_0":3
			},
			"indices":0,
			"material":0
		}]
	}],
	"accessors":[{
		"bufferView":0,
		"type":"SCALAR",
		"componentType":5123,
		"count":50868,
		"byteOffset":0,
		"min":[0],
		"max":[16647]
	},
	{
		"bufferView":1,
		"type":"VEC3",
		"componentType":5126,
		"count":16648,
		"byteOffset":0,
		"min":[-740.366455078125,
		-347.36541748046877,
		-1250.2962646484376],
		"max":[803.8328857421875,
		820.9921875,
		1083.0528564453126]
	},
	{
		"bufferView":1,
		"type":"VEC3",
		"componentType":5126,
		"count":16648,
		"byteOffset":12,
		"min":[-1.0,
		-1.0,
		-1.0],
		"max":[1.0,
		1.0,
		1.0]
	},
	{
		"bufferView":1,
		"type":"VEC2",
		"componentType":5126,
		"count":16648,
		"byteOffset":24,
		"min":[0.0,
		0.0],
		"max":[0.9935576915740967,
		0.9935591220855713]
	}],
	"bufferViews":[{
		"buffer":0,
		"byteOffset":0,
		"byteLength":101736,
		"target":34963
	},
	{
		"buffer":0,
		"byteOffset":101736,
		"byteLength":532736,
		"target":34962,
		"byteStride":32
	}],
	"buffers":[{
		"uri":"data:application/octet-stream;base64,",
		"byteLength":634472
	}],
	"images":[{
		"uri":"data:image/jpeg;base64,"
	}],
	"samplers":[{
		"magFilter":9729,
		"minFilter":9729,
		"wrapS":10497,
		"wrapT":10497
	}],
	"textures":[{
		"sampler":0,
		"source":0
	}],
	"materials":[{
		"pbrMetallicRoughness":{
			"baseColorFactor":[1.0,
			1.0,
			1.0,
			1.0],
			"metallicFactor":0.0,
			"roughnessFactor":0.5
		},
		"emissiveTexture":{
			"index":0
		},
		"emissiveFactor":[1.0,
		1.0,
		1.0],
		"alphaMode":"OPAQUE",
		"doubleSided":false,
		"name":"Atelier.obj.1"
	}]
}